<?xml version="1.0" encoding="utf-8"?>
<!-- Generator: Adobe Illustrator 16.0.0, SVG Export Plug-In . SVG Version: 6.00 Build 0)  -->
<!DOCTYPE svg PUBLIC "-//W3C//DTD SVG 1.1//EN" "http://www.w3.org/Graphics/SVG/1.1/DTD/svg11.dtd">
<svg version="1.1" id="Layer_1" xmlns="http://www.w3.org/2000/svg" xmlns:xlink="http://www.w3.org/1999/xlink" x="0px" y="0px"
	 width="960px" height="560px" viewBox="0 0 960 560" enable-background="new 0 0 960 560" xml:space="preserve">
<g>
	<path d="M283.543,281.486c1.074-10.557-3.427-16.523-14.079-17.463c-7.927-0.699-11.917-5.798-15.87-11.424
		c-0.434-0.617-0.461-1.521-0.674-2.281c16.75-5.42,42.189-2.161,50.006,15.782c0-5.108,0-10.218,0-15.613
		c5.938,0,11.168,0,16.611,0c0.654,3.401,1.27,6.591,2.055,10.671c7.404-8.196,15.828-12.962,26.42-12.979
		c10.831-0.017,19.483,3.838,24.76,14.612c7.2-9.035,15.963-14.403,27.398-14.617c11.799-0.222,20.604,4.486,25.943,16.015
		c7.297-10.152,16.632-15.554,28.917-15.055c12.63,0.513,21.212,6.811,27.034,18.23c0-6.112,0-12.224,0-18.626
		c5.967,0,11.207,0,16.646,0c0.629,3.294,1.244,6.508,2.061,10.774c7.563-10.612,17.372-14.288,29.659-12.675
		c0,5.65,0,11.204,0,16.957c-4.189,0.555-8.321,0.85-12.344,1.684c-8.912,1.85-15.147,6.541-18.169,15.738
		c-4.668,14.218-10.324,28.105-15.115,42.283c-1.756,5.197-4.646,8.104-9.979,8.779c-5.604,0.704-11.187,1.904-16.805,2.104
		c-11.034,0.395-21.125-2.42-29.762-11.248c-0.223,2.982-0.396,5.324-0.597,7.992c-6.397,0-12.79,0-19.705,0
		c0-4.43,0.005-8.717-0.001-13.004c-0.021-13.162,0.12-26.33-0.108-39.49c-0.198-11.476-6.979-16.223-17.979-12.83
		c-2.36,0.729-4.629,1.881-6.791,3.1c-5.266,2.967-8.095,6.83-7.791,13.629c0.639,14.303,0.193,28.652,0.193,42.982
		c0,1.805,0,3.604,0,5.668c-6.764,0-12.997,0-19.846,0c0-2.152,0.008-4.096-0.002-6.039c-0.072-15.66,0.167-31.334-0.328-46.98
		c-0.366-11.552-7.229-15.863-18.273-12.202c-2.346,0.777-4.57,1.992-6.742,3.198c-5.181,2.879-7.656,6.792-7.44,13.277
		c0.537,16.115,0.177,32.264,0.177,48.727c-12.281,0-24.18,0-36.508,0c-0.299-2.598-0.592-5.15-0.791-6.895
		c-6.41,2.883-12.536,6.787-19.215,8.398c-14.666,3.541-28.236-4.727-31.607-18.123c-3.808-15.127,3.754-28.605,18.711-33.252
		C263.48,278.227,273.365,279.332,283.543,281.486z M482.258,297.842c-15.298,0-30.016,0-44.742,0
		c0.411,11.332,5.948,18.023,16.59,20.012c8.945,1.674,17.514-0.287,25.884-3.268c0.953-0.34,2.122-1.727,2.169-2.68
		C482.382,307.313,482.258,302.703,482.258,297.842z M285.751,296.037c-8.634-1.896-16.132-3.266-23.643-0.605
		c-5.603,1.984-7.937,6.264-7.09,12.176c0.697,4.869,4.571,8.391,9.986,8.854c7.068,0.604,13.8-1.43,17.859-6.91
		C285.325,306.227,284.863,300.74,285.751,296.037z M440.791,281.779c10.527,0,20.735,0,30.916,0
		c0.488-9.924-5.094-16.785-13.672-17.223C448.621,264.078,441.599,270.916,440.791,281.779z"/>
	<path d="M192.826,220.791c0,6.77,0,12.076,0,17.852c-4.715-0.889-9.172-2.118-13.699-2.486c-5.777-0.471-11.725-1.007-17.402-0.179
		c-16.297,2.376-27.549,12.938-30.123,29.596c-1.314,8.509-0.971,17.693,0.73,26.15c2.608,12.963,11.351,21.186,24.494,24.076
		c12.184,2.686,24.088,0.93,36.122-2.471c0-21.229,0-42.18,0-63.479c5.7,0,11.103,0,16.808,0c0.643,3.071,1.307,6.248,2.203,10.533
		c4.623-6.594,9.803-11.346,17.051-12.253c6.729-0.842,13.572-0.752,19.39-1.026c0.248,2.4,0.255,4.221,0.688,5.935
		c0.221,0.87,1.326,1.478,1.832,2.323c1.219,2.034,2.32,4.138,3.47,6.213c-2.547,0.961-5.024,2.404-7.655,2.785
		c-6.553,0.946-13.303,0.825-19.738,2.219c-7.743,1.676-12.987,6.536-15.701,14.457c-5.173,15.096-10.998,29.967-16.406,44.98
		c-1.351,3.75-3.348,5.854-7.566,6.541c-16.849,2.754-33.541,3.563-49.45-3.916c-18.154-8.531-27.333-23.295-27.768-43.186
		c-0.192-8.758-0.519-17.888,1.591-26.251c6.769-26.846,28.688-42.236,57.369-41.136
		C176.976,218.376,184.842,219.846,192.826,220.791z"/>
	<path d="M749.281,331.43c-5.556,0-11.152,0-17.046,0c-0.239-2.617-0.46-5.018-0.727-7.9c-0.897,0.418-1.541,0.533-1.914,0.916
		c-9.888,10.063-21.778,11.393-34.455,7.215c-13.081-4.313-18.958-14.705-21.249-27.564c-2.304-12.924-1.33-25.463,5.033-37.202
		c9.477-17.479,29.655-23.229,46.944-13.476c1.112,0.629,2.227,1.258,4.042,2.283c0-8.094,0-15.507,0-22.919
		c0-7.287,0-14.574,0-22.092c6.531,0,12.635,0,19.369,0C749.281,250.944,749.281,291.135,749.281,331.43z M731.859,291.465
		c0-5.488,0.055-10.979-0.042-16.466c-0.021-1.236-0.152-2.952-0.938-3.62c-8.978-7.623-25.078-9.982-31.999,3.514
		c-4.788,9.337-4.931,19.281-2.497,29.186c3.656,14.869,19.035,19.727,31.268,10.168c2.895-2.262,4.697-4.746,4.311-8.817
		C731.521,300.813,731.859,296.123,731.859,291.465z"/>
	<path d="M613.052,330.473c-17.761,3.889-34.823,4.867-51.545-1.938c-14.324-5.832-23.646-16.342-27.892-31.188
		c-4.643-16.225-3.928-32.291,2.605-47.88c8.838-21.079,29.931-33.596,54.74-32.429c6.606,0.311,13.167,1.646,19.744,2.542
		c2.501,0.341,3.678,1.601,3.543,4.356c-0.217,4.449-0.059,8.915-0.059,13.245c-7.586-0.963-14.608-2.427-21.673-2.646
		c-23.728-0.737-39.132,13.487-40.354,37.22c-0.298,5.754,0.076,11.725,1.313,17.338c3.971,18.008,17.955,27.771,37.724,26.979
		c0.665-0.027,1.354,0.014,1.985-0.152c5.469-1.439,9.127,0.133,11.825,5.465C606.663,324.65,609.96,327.082,613.052,330.473z"/>
	<path d="M598.601,291.721c0.33-22.191,11.65-37.955,31.359-41.646c15.879-2.973,30.528-0.218,41.658,12.993
		c1.892,2.244,2.21,4.026,0.833,7.033c-6.662,14.559-7.025,29.424-0.493,44.174c1.203,2.717,1.006,4.531-0.958,6.639
		c-12.284,13.174-27.362,16.047-44.121,11.59c-16.01-4.26-24.454-15.438-27.023-31.438
		C599.355,297.961,599.015,294.836,598.601,291.721z M660.535,293.695c-0.72-5.389-0.784-9.279-1.815-12.896
		c-2.221-7.782-6.669-13.918-15.262-15.197c-8.082-1.203-15.479,0.557-19.713,8.36c-5.94,10.948-6.042,22.378-0.987,33.641
		c3.146,7.013,9.182,10.491,16.794,10.575c7.847,0.086,14.026-3.525,17.188-10.688C658.823,302.766,659.547,297.441,660.535,293.695
		z"/>
	<path d="M797.729,328.283c1.671-2.447,2.92-4.395,4.282-6.254c3.573-4.877,7.683-7.438,14.396-6.063
		c4.477,0.914,9.746,0.238,14.095-1.311c2.865-1.021,5.928-4.535,6.737-7.521c1.068-3.94-2.432-6.598-6.145-7.827
		c-5.313-1.763-10.758-3.138-16.079-4.882c-13.128-4.301-17.405-10.176-17.109-23.193c0.234-10.424,7.59-19.687,18.521-22.503
		c11.761-3.031,23.448-1.733,34.888,1.939c1.058,0.34,2.352,1.938,2.418,3.02c0.271,4.44,0.112,8.908,0.112,12.967
		c-7.503-1.185-14.631-2.58-21.827-3.322c-3.203-0.332-6.874-0.055-9.718,1.27c-2.28,1.06-4.395,3.865-5.211,6.348
		c-1.151,3.503,1.367,6.16,4.564,7.254c6.598,2.256,13.373,3.986,20.011,6.135c8.046,2.607,13.534,7.797,15.012,16.391
		c2.255,13.119-4.217,24.363-16.832,28.816C825.938,334.457,812.096,332.979,797.729,328.283z"/>
	<path d="M803.541,251.532c-3.182,4.294-6.383,8.613-9.844,13.284c-5.483-3.006-11.835-3.664-17.822,0.732
		c-4.66,3.422-6.832,8.26-7.231,14.619c7.441,0,14.398,0.088,21.354-0.043c2.715-0.051,4.461,0.412,5.717,3.313
		c2.781,6.422,8.81,9.061,14.898,11.979c-14.136,0-28.27,0-42.328,0c-1.767,14.939,11.128,22.387,34.555,20.307
		c-3.158,4.089-6.185,8.002-9.588,12.408c3.017,1.127,5.428,2.029,7.76,2.902c-13.096,3.977-36.305,0.471-45.287-12.27
		c-1.43-2.025-2.435-4.82-2.479-7.281c-0.257-14.318-0.205-28.646-0.146-42.968c0.006-1.592,0.416-3.349,1.167-4.743
		C762.695,248.129,788.752,241.879,803.541,251.532z"/>
	<path d="M483.77,329.379c6.264-13.611,12.304-26.74,18.633-40.5C503.046,302.006,492.087,326.037,483.77,329.379z"/>
	<path d="M194.779,330.449c6.28-13.658,12.315-26.783,18.611-40.475C214.212,302.52,203.127,326.928,194.779,330.449z"/>
</g>
</svg>
