<svg xmlns="http://www.w3.org/2000/svg" xmlns:xlink="http://www.w3.org/1999/xlink" version="1.1" width="747" height="124" enable-background="new 0 0 960 560" xml:space="preserve" style=""><rect id="backgroundrect" width="100%" height="100%" x="0" y="0" fill="none" stroke="none" class="" style=""/>

<g class="currentLayer" style=""><title>Layer 1</title><g id="svg_1" class="selected" fill="#ffffff" fill-opacity="1">
	<path d="M173.57872894632817,70.79500192260741 c1.074,-10.557 -3.427,-16.523 -14.079,-17.463 c-7.927,-0.6990000000000016 -11.917,-5.798 -15.870000000000001,-11.424 c-0.4340000000000005,-0.617000000000001 -0.461,-1.521 -0.6740000000000014,-2.281 c16.75,-5.42 42.189,-2.161 50.006,15.782 c0,-5.108 0,-10.218 0,-15.613 c5.938,0 11.168,0 16.611,0 c0.6540000000000011,3.401 1.27,6.591 2.055,10.671 c7.404,-8.196 15.828,-12.962 26.42,-12.979 c10.831,-0.017000000000000046 19.483,3.838 24.76,14.612 c7.2,-9.035 15.963000000000001,-14.403 27.398,-14.617 c11.799,-0.2220000000000003 20.604,4.486 25.943,16.015 c7.297,-10.152 16.632,-15.554 28.917,-15.055 c12.63,0.513 21.212,6.811 27.034,18.23 c0,-6.112 0,-12.224 0,-18.626 c5.9670000000000005,0 11.207,0 16.646,0 c0.629000000000001,3.294 1.244,6.508 2.061,10.774000000000001 c7.563,-10.612 17.372,-14.288 29.659,-12.675 c0,5.65 0,11.204 0,16.957 c-4.189,0.555 -8.321,0.8500000000000006 -12.344,1.6840000000000006 c-8.912,1.85 -15.147,6.541 -18.169,15.738 c-4.668,14.218 -10.324,28.105 -15.115,42.283 c-1.7560000000000002,5.197 -4.646,8.104 -9.979,8.779 c-5.604,0.7040000000000006 -11.187,1.904 -16.805,2.104 c-11.034,0.3950000000000007 -21.125,-2.42 -29.762,-11.248 c-0.2230000000000003,2.982 -0.3960000000000007,5.324 -0.5970000000000006,7.992 c-6.397,0 -12.79,0 -19.705,0 c0,-4.43 0.005000000000000009,-8.717 -0.0010000000000000022,-13.004 c-0.021000000000000046,-13.162 0.12000000000000002,-26.33 -0.10800000000000012,-39.49 c-0.19800000000000034,-11.476 -6.979,-16.223 -17.979,-12.83 c-2.36,0.7290000000000006 -4.6290000000000004,1.8810000000000002 -6.791,3.1 c-5.266,2.967 -8.095,6.83 -7.791,13.629 c0.6390000000000011,14.303 0.1930000000000003,28.652 0.1930000000000003,42.982 c0,1.8050000000000002 0,3.604 0,5.668 c-6.764,0 -12.997,0 -19.846,0 c0,-2.152 0.008000000000000016,-4.096 -0.002000000000000004,-6.039 c-0.07200000000000002,-15.66 0.16700000000000037,-31.334 -0.32800000000000057,-46.98 c-0.3660000000000003,-11.552 -7.229,-15.863 -18.273,-12.202 c-2.346,0.777 -4.57,1.992 -6.742,3.198 c-5.181,2.879 -7.6560000000000015,6.792 -7.44,13.277 c0.537,16.115 0.1770000000000002,32.264 0.1770000000000002,48.727 c-12.281,0 -24.18,0 -36.508,0 c-0.2990000000000003,-2.598 -0.5920000000000006,-5.15 -0.791,-6.8950000000000005 c-6.41,2.883 -12.536,6.787 -19.215,8.398 c-14.666,3.541 -28.236,-4.727 -31.607,-18.123 c-3.808,-15.127 3.754,-28.605 18.711,-33.252 C153.51572894632818,67.5360019226074 163.40072894632817,68.64100192260742 173.57872894632817,70.79500192260741 zM372.29372894632814,87.1510019226074 c-15.298,0 -30.016,0 -44.742,0 c0.4110000000000003,11.332 5.948,18.023 16.59,20.012 c8.945,1.6740000000000008 17.514,-0.2870000000000003 25.884,-3.268 c0.9530000000000006,-0.3400000000000007 2.122,-1.727 2.169,-2.68 C372.41772894632817,96.62200192260741 372.29372894632814,92.0120019226074 372.29372894632814,87.1510019226074 zM175.78672894632814,85.3460019226074 c-8.634,-1.8960000000000008 -16.132,-3.266 -23.643,-0.6050000000000006 c-5.603,1.984 -7.937,6.264 -7.09,12.176 c0.6970000000000016,4.869 4.571,8.391 9.986,8.854 c7.068,0.6040000000000006 13.8,-1.4300000000000002 17.859,-6.91 C175.36072894632815,95.5360019226074 174.89872894632816,90.04900192260743 175.78672894632814,85.3460019226074 zM330.82672894632816,71.08800192260742 c10.527,0 20.735,0 30.916,0 c0.4880000000000003,-9.924 -5.094,-16.785 -13.672,-17.223 C338.65672894632814,53.387001922607396 331.63472894632815,60.22500192260742 330.82672894632816,71.08800192260742 z" id="svg_2" fill="#ffffff" fill-opacity="1"/>
	<path d="M82.86172894632816,10.100001922607419 c0,6.77 0,12.076 0,17.852 c-4.715,-0.8890000000000011 -9.172,-2.118 -13.699,-2.486 c-5.777,-0.4710000000000003 -11.725,-1.007 -17.402,-0.17900000000000021 c-16.297,2.376 -27.549,12.938 -30.123,29.596 c-1.314,8.509 -0.971,17.693 0.7300000000000006,26.15 c2.608,12.963000000000001 11.351,21.186 24.494,24.076 c12.184,2.686 24.088,0.93 36.122,-2.471 c0,-21.229 0,-42.18 0,-63.479 c5.7,0 11.103,0 16.808,0 c0.6430000000000011,3.071 1.307,6.248 2.203,10.533 c4.623,-6.594 9.803,-11.346 17.051,-12.253 c6.729,-0.8420000000000006 13.572,-0.752000000000001 19.39,-1.026 c0.24800000000000025,2.4 0.255,4.221 0.6880000000000014,5.9350000000000005 c0.22100000000000028,0.870000000000001 1.326,1.478 1.832,2.323 c1.219,2.034 2.3200000000000003,4.138 3.47,6.213 c-2.547,0.9610000000000006 -5.024,2.404 -7.655,2.785 c-6.553,0.9460000000000006 -13.303,0.8250000000000006 -19.738,2.219 c-7.743,1.6760000000000006 -12.987,6.536 -15.701,14.457 c-5.173,15.096 -10.998,29.967 -16.406,44.98 c-1.351,3.75 -3.348,5.854 -7.566,6.541 c-16.849,2.754 -33.541,3.563 -49.45,-3.916 c-18.154,-8.531 -27.333,-23.295 -27.768,-43.186 c-0.1920000000000003,-8.758000000000001 -0.519,-17.888 1.5910000000000002,-26.251 c6.769,-26.846 28.688,-42.236 57.369,-41.136 C67.01172894632816,7.685001922607398 74.87772894632818,9.155001922607426 82.86172894632816,10.100001922607419 z" id="svg_3" fill="#ffffff" fill-opacity="1"/>
	<path d="M639.3167289463281,120.73900192260743 c-5.556,0 -11.152,0 -17.046,0 c-0.2390000000000002,-2.617 -0.46,-5.018 -0.7270000000000006,-7.9 c-0.8970000000000011,0.4180000000000003 -1.541,0.533 -1.9140000000000001,0.916 c-9.888,10.063 -21.778,11.393 -34.455,7.215 c-13.081,-4.313 -18.958,-14.705 -21.249,-27.564 c-2.3040000000000003,-12.924 -1.33,-25.463 5.033,-37.202 c9.477,-17.479 29.655,-23.229 46.944,-13.476 c1.112,0.629000000000001 2.227,1.258 4.042,2.283 c0,-8.094 0,-15.507 0,-22.919 c0,-7.287 0,-14.574 0,-22.092 c6.531,0 12.635,0 19.369,0 C639.3167289463281,40.25300192260738 639.3167289463281,80.44400192260741 639.3167289463281,120.73900192260743 zM621.8947289463282,80.7740019226074 c0,-5.488 0.05500000000000006,-10.979 -0.04200000000000008,-16.466 c-0.021000000000000046,-1.236 -0.15200000000000025,-2.952 -0.9380000000000006,-3.62 c-8.978,-7.623 -25.078,-9.982 -31.999,3.5140000000000002 c-4.788,9.337 -4.931,19.281 -2.497,29.186 c3.656,14.869 19.035,19.727 31.268,10.168 c2.895,-2.262 4.697,-4.746 4.311,-8.817 C621.5567289463281,90.12200192260741 621.8947289463282,85.43200192260741 621.8947289463282,80.7740019226074 z" id="svg_4" fill="#ffffff" fill-opacity="1"/>
	<path d="M503.0877289463282,119.78200192260744 c-17.761,3.8890000000000002 -34.823,4.867 -51.545,-1.9380000000000002 c-14.324,-5.832 -23.646,-16.342 -27.892,-31.188 c-4.643,-16.225 -3.928,-32.291 2.605,-47.88 c8.838000000000001,-21.079 29.931,-33.596000000000004 54.74,-32.429 c6.606,0.3110000000000005 13.167,1.6460000000000008 19.744,2.542 c2.501,0.3410000000000007 3.678,1.601 3.543,4.356 c-0.21700000000000025,4.449 -0.059000000000000094,8.915 -0.059000000000000094,13.245 c-7.586,-0.9630000000000006 -14.608,-2.427 -21.673000000000002,-2.646 c-23.728,-0.737000000000001 -39.132,13.487 -40.354,37.22 c-0.2980000000000003,5.7540000000000004 0.07600000000000012,11.725 1.3130000000000002,17.338 c3.971,18.008 17.955,27.771 37.724,26.979 c0.6650000000000013,-0.02700000000000006 1.354,0.014000000000000016 1.9849999999999999,-0.15200000000000025 c5.469,-1.439 9.127,0.133 11.825,5.465 C496.6987289463282,113.9590019226074 499.9957289463282,116.39100192260742 503.0877289463282,119.78200192260744 z" id="svg_5" fill="#ffffff" fill-opacity="1"/>
	<path d="M488.63672894632816,81.03000192260743 c0.33000000000000057,-22.191 11.65,-37.955 31.359,-41.646 c15.879,-2.973 30.528,-0.21800000000000028 41.658,12.993 c1.8920000000000003,2.244 2.21,4.026 0.8330000000000006,7.033 c-6.662,14.559 -7.025,29.424 -0.4930000000000003,44.174 c1.203,2.717 1.006,4.531 -0.9580000000000006,6.639 c-12.284,13.174 -27.362,16.047 -44.121,11.59 c-16.01,-4.26 -24.454,-15.438 -27.023,-31.438 C489.3907289463282,87.27000192260743 489.05072894632815,84.14500192260743 488.63672894632816,81.03000192260743 zM550.5707289463281,83.00400192260742 c-0.7200000000000006,-5.389 -0.784,-9.279 -1.815,-12.896 c-2.221,-7.782 -6.6690000000000005,-13.918 -15.262,-15.197 c-8.082,-1.203 -15.479,0.557 -19.713,8.36 c-5.94,10.948 -6.042,22.378 -0.987,33.641 c3.146,7.013 9.182,10.491 16.794,10.575 c7.847,0.08600000000000017 14.026,-3.525 17.188,-10.688 C548.8587289463281,92.07500192260744 549.5827289463282,86.7500019226074 550.5707289463281,83.00400192260742 z" id="svg_6" fill="#ffffff" fill-opacity="1"/>
	<path d="M687.7647289463282,117.59200192260744 c1.6710000000000007,-2.447 2.92,-4.3950000000000005 4.282,-6.254 c3.573,-4.877 7.683,-7.438 14.396,-6.063 c4.477,0.914 9.746,0.23800000000000004 14.095,-1.311 c2.865,-1.021 5.928,-4.535 6.737,-7.521 c1.068,-3.94 -2.432,-6.598 -6.145,-7.827 c-5.313,-1.7630000000000003 -10.758000000000001,-3.138 -16.079,-4.882 c-13.128,-4.301 -17.405,-10.176 -17.109,-23.193 c0.234,-10.424 7.59,-19.687 18.521,-22.503 c11.761,-3.031 23.448,-1.733 34.888,1.939 c1.058,0.3400000000000007 2.352,1.9380000000000002 2.418,3.02 c0.271,4.44 0.11200000000000013,8.908 0.11200000000000013,12.967 c-7.503,-1.185 -14.631,-2.58 -21.827,-3.322 c-3.203,-0.3320000000000007 -6.8740000000000006,-0.05500000000000006 -9.718,1.27 c-2.2800000000000002,1.06 -4.3950000000000005,3.865 -5.211,6.348 c-1.151,3.503 1.367,6.16 4.564,7.254 c6.598,2.2560000000000002 13.373,3.9859999999999998 20.011,6.135 c8.046,2.607 13.534,7.797 15.012,16.391000000000002 c2.255,13.119 -4.217,24.363 -16.832,28.816 C715.9737289463282,123.76600192260742 702.1317289463282,122.2880019226074 687.7647289463282,117.59200192260744 z" id="svg_7" fill="#ffffff" fill-opacity="1"/>
	<path d="M693.5767289463282,40.84100192260746 c-3.182,4.2940000000000005 -6.383,8.613 -9.844,13.284 c-5.483,-3.006 -11.835,-3.664 -17.822,0.732000000000001 c-4.66,3.422 -6.832,8.26 -7.231,14.619 c7.441,0 14.398,0.08800000000000018 21.354,-0.043000000000000094 c2.715,-0.051000000000000094 4.461,0.4120000000000003 5.7170000000000005,3.313 c2.781,6.422 8.81,9.061 14.898,11.979 c-14.136,0 -28.27,0 -42.328,0 c-1.7670000000000003,14.939 11.128,22.387 34.555,20.307 c-3.158,4.089 -6.185,8.002 -9.588000000000001,12.408 c3.017,1.127 5.428,2.029 7.76,2.902 c-13.096,3.977 -36.305,0.4710000000000003 -45.287,-12.27 c-1.4300000000000002,-2.025 -2.435,-4.82 -2.479,-7.281 c-0.257,-14.318 -0.20500000000000004,-28.646 -0.1460000000000002,-42.968 c0.006000000000000019,-1.592 0.4160000000000003,-3.349 1.167,-4.743 C652.7307289463282,37.43800192260744 678.7877289463281,31.18800192260744 693.5767289463282,40.84100192260746 z" id="svg_8" fill="#ffffff" fill-opacity="1"/>
	<path d="M373.80572894632814,118.68800192260744 c6.264,-13.611 12.304,-26.74 18.633,-40.5 C393.08172894632816,91.3150019226074 382.12272894632815,115.3460019226074 373.80572894632814,118.68800192260744 z" id="svg_9" fill="#ffffff" fill-opacity="1"/>
	<path d="M84.81472894632816,119.75800192260743 c6.28,-13.658 12.315,-26.783 18.611,-40.475 C104.24772894632815,91.8290019226074 93.16272894632817,116.23700192260742 84.81472894632816,119.75800192260743 z" id="svg_10" fill="#ffffff" fill-opacity="1"/>
</g></g></svg>